<?xml version="1.0" encoding="UTF-8"?>
<svg version="1.1" xmlns="http://www.w3.org/2000/svg" width="200" height="200">
<path d="M0 0 C0.69134033 -0.00287018 1.38268066 -0.00574036 2.0949707 -0.00869751 C3.55062687 -0.01073089 5.00631081 -0.00525188 6.46191406 0.00732422 C8.68096425 0.02339018 10.89819347 0.00745289 13.1171875 -0.01171875 C14.53646232 -0.00973619 15.95573602 -0.00589224 17.375 0 C18.65761719 0.00338379 19.94023438 0.00676758 21.26171875 0.01025391 C25.76396673 0.52041456 28.37866624 1.76124647 31.21728516 5.31201172 C31.63284668 6.0185791 32.0484082 6.72514648 32.4765625 7.453125 C33.17652344 8.62294922 33.17652344 8.62294922 33.890625 9.81640625 C34.35984375 10.62722656 34.8290625 11.43804687 35.3125 12.2734375 C35.78945312 13.07652344 36.26640625 13.87960938 36.7578125 14.70703125 C37.67531941 16.25404985 38.58675256 17.80469158 39.49121094 19.359375 C40.46131068 21.01290012 41.47097036 22.6431718 42.4921875 24.265625 C44.33195023 27.54833889 44.1830089 29.68212078 43.6875 33.3984375 C40.76233026 39.64694393 36.83485695 45.46863885 33.125 51.2734375 C32.0650981 52.94270448 31.00520245 54.61197543 29.9453125 56.28125 C28.85945972 57.9870331 27.77352253 59.69276247 26.6875 61.3984375 C18.24677433 74.66281494 18.24677433 74.66281494 10.0625 88.0859375 C9.34505208 89.28255208 8.62760417 90.47916667 7.91015625 91.67578125 C6.74078094 93.62789632 5.57904252 95.58366116 4.42919922 97.54736328 C3.13341675 99.75633623 1.81822498 101.95280157 0.5 104.1484375 C0.10796387 104.82865967 -0.28407227 105.50888184 -0.68798828 106.2097168 C-1.07325684 106.84433838 -1.45852539 107.47895996 -1.85546875 108.1328125 C-2.18571045 108.69194336 -2.51595215 109.25107422 -2.85620117 109.82714844 C-5.87311327 113.08227773 -9.31846721 114.28290299 -13.65234375 114.78662109 C-14.83957031 114.79000488 -16.02679688 114.79338867 -17.25 114.796875 C-18.55710938 114.80074219 -19.86421875 114.80460937 -21.2109375 114.80859375 C-21.88479492 114.80230957 -22.55865234 114.79602539 -23.25292969 114.78955078 C-25.3073163 114.77347806 -27.3597362 114.78943576 -29.4140625 114.80859375 C-31.37472656 114.80279297 -31.37472656 114.80279297 -33.375 114.796875 C-34.56222656 114.79349121 -35.74945313 114.79010742 -36.97265625 114.78662109 C-41.53579294 114.25625652 -44.91823869 113.02200311 -47.95581055 109.48486328 C-48.36613525 108.7782959 -48.77645996 108.07172852 -49.19921875 107.34375 C-49.66263672 106.56386719 -50.12605469 105.78398437 -50.60351562 104.98046875 C-51.06435547 104.16964844 -51.52519531 103.35882813 -52 102.5234375 C-52.47244141 101.72035156 -52.94488281 100.91726562 -53.43164062 100.08984375 C-54.34228359 98.53932402 -55.24234796 96.98252996 -56.13037109 95.41894531 C-57.35170441 93.26208351 -57.35170441 93.26208351 -59.14453125 90.828125 C-60.84235135 87.29620492 -61.04746708 84.18304627 -60.3125 80.3984375 C-58.94589141 77.23837933 -57.15247603 74.44835568 -55.25 71.5859375 C-54.78400391 70.85568359 -54.31800781 70.12542969 -53.83789062 69.37304688 C-52.86416361 67.85085321 -51.88260311 66.33364755 -50.89404297 64.82104492 C-45.58632772 56.69068703 -40.45338664 48.44730008 -35.3125 40.2109375 C-34.6745752 39.19298096 -34.03665039 38.17502441 -33.37939453 37.1262207 C-29.94490793 31.64103735 -26.53974868 26.14050366 -23.1796875 20.609375 C-22.17615234 18.97005005 -22.17615234 18.97005005 -21.15234375 17.29760742 C-19.86701598 15.1966523 -18.59058627 13.09022095 -17.32421875 10.9777832 C-16.74027344 10.02734131 -16.15632813 9.07689941 -15.5546875 8.09765625 C-15.0479248 7.26065186 -14.54116211 6.42364746 -14.01904297 5.5612793 C-10.07008361 0.55643939 -6.17110375 0.01628055 0 0 Z M24.6875 8.3984375 C17.60685079 19.93103969 17.60685079 19.93103969 10.625 31.5234375 C5.09193284 40.77156403 -0.66320127 49.88708031 -6.53344727 58.92431641 C-7.91984793 61.0587611 -9.30010714 63.1970801 -10.6796875 65.3359375 C-12.3705548 67.95597546 -14.08522475 70.55752012 -15.8203125 73.1484375 C-16.56831917 74.29387217 -17.31575087 75.4396826 -18.0625 76.5859375 C-18.71734375 77.56949219 -19.3721875 78.55304688 -20.046875 79.56640625 C-21.65335232 83.16114717 -21.50043399 84.65952176 -20.3125 88.3984375 C-18.99888657 90.91425127 -17.47291352 93.24283114 -15.875 95.5859375 C-15.46701172 96.20146484 -15.05902344 96.81699219 -14.63867188 97.45117188 C-13.53929861 99.10650878 -12.42653691 100.75293344 -11.3125 102.3984375 C-10.6525 103.3884375 -9.9925 104.3784375 -9.3125 105.3984375 C-5.7879564 104.22358963 -5.54377094 103.59136969 -3.74609375 100.48828125 C-3.2658374 99.67141846 -2.78558105 98.85455566 -2.29077148 98.01293945 C-1.5280896 96.68782349 -1.5280896 96.68782349 -0.75 95.3359375 C0.33216789 93.49410642 1.41551623 91.65296843 2.5 89.8125 C3.03882812 88.8937207 3.57765625 87.97494141 4.1328125 87.02832031 C6.28469924 83.38822547 8.5026997 79.79271435 10.75 76.2109375 C11.15234863 75.56874268 11.55469727 74.92654785 11.96923828 74.26489258 C14.97527299 69.48767971 18.04667702 64.75425949 21.125 60.0234375 C25.07727974 53.93349117 28.98217585 47.81591924 32.8125 41.6484375 C33.52297485 40.52236084 33.52297485 40.52236084 34.24780273 39.37353516 C37.62482298 34.24098434 37.62482298 34.24098434 38.6875 28.3984375 C37.40413967 25.51977823 35.74144856 22.95651733 34 20.3359375 C33.55205078 19.62888672 33.10410156 18.92183594 32.64257812 18.19335938 C30.28656628 14.5410266 27.9384093 11.32958523 24.6875 8.3984375 Z " fill="#292A2D" transform="translate(91.3125,42.6015625)"/>
<path d="M0 0 C0.6820752 0.05220703 1.36415039 0.10441406 2.06689453 0.15820312 C2.7773291 0.19623047 3.48776367 0.23425781 4.21972656 0.2734375 C5.634289 0.3596168 7.04794525 0.46256033 8.45996094 0.58349609 C10.54414478 0.7652656 10.54414478 0.7652656 13.29736328 0.63085938 C16.33251532 0.74184268 17.79959636 1.07067993 20.37939453 2.72070312 C23.94763434 6.92350449 26.57334628 11.77919267 29.19287109 16.60620117 C30.79718988 19.4652557 32.58201042 22.19534296 34.3894043 24.92944336 C36.12821103 28.0755901 35.99234452 30.22688818 35.37939453 33.72070312 C34.03198485 36.93127739 32.24326608 39.78564103 30.37939453 42.72070312 C29.6358943 43.91470691 28.89240552 45.10871783 28.14892578 46.30273438 C27.35242321 47.56811287 26.55424151 48.83243597 25.75439453 50.09570312 C25.37033447 50.70293213 24.98627441 51.31016113 24.59057617 51.93579102 C19.89960944 59.21396482 19.89960944 59.21396482 15.37939453 60.72070312 C11.12527635 60.92565862 6.86880216 60.90650439 2.61035156 60.90600586 C0.51883465 60.90818806 -1.57215087 60.92634435 -3.66357422 60.9453125 C-5.00081201 60.94824763 -6.33805229 60.95023163 -7.67529297 60.95117188 C-9.49262939 60.95733521 -9.49262939 60.95733521 -11.34667969 60.96362305 C-15.31986789 60.668819 -18.27932181 60.12660011 -21.09033203 57.18017578 C-21.66992676 56.29144775 -21.66992676 56.29144775 -22.26123047 55.38476562 C-22.69177734 54.7325 -23.12232422 54.08023438 -23.56591797 53.40820312 C-23.99646484 52.72757813 -24.42701172 52.04695313 -24.87060547 51.34570312 C-25.53962891 50.33636719 -25.53962891 50.33636719 -26.22216797 49.30664062 C-30.15922273 43.24596238 -30.15922273 43.24596238 -30.62060547 39.72070312 C-29.28065444 37.15522385 -27.90947765 34.86423269 -26.30810547 32.47070312 C-25.38058473 31.03999701 -24.45351457 29.60899871 -23.52685547 28.17773438 C-23.04603516 27.44377441 -22.56521484 26.70981445 -22.06982422 25.95361328 C-19.3434845 21.75295575 -16.73722788 17.47670606 -14.10961914 13.21386719 C-13.34327395 11.98218936 -12.56680185 10.75674528 -11.77954102 9.53833008 C-10.98163142 8.28692141 -10.21906847 7.01250014 -9.48706055 5.72143555 C-6.92901068 1.53288713 -5.25547451 -0.08795773 0 0 Z M16.37939453 9.72070312 C14.77277029 11.76769727 13.44333688 13.95084195 12.04736328 16.14648438 C10.95882991 17.82644572 9.81662376 19.47314387 8.61767578 21.07617188 C8.06466797 21.82511719 7.51166016 22.5740625 6.94189453 23.34570312 C6.42755859 24.01859375 5.91322266 24.69148438 5.38330078 25.38476562 C3.85548422 28.93976292 4.38671138 30.99236989 5.37939453 34.72070312 C7.01484112 37.85587164 8.94244431 40.74514643 10.94189453 43.65820312 C11.46203125 44.43744141 11.98216797 45.21667969 12.51806641 46.01953125 C13.79413079 47.92777431 15.08120686 49.82747291 16.37939453 51.72070312 C21.14013055 50.13379112 22.2928054 46.0368334 24.65283203 41.79882812 C26.0007021 39.39583805 27.42387088 37.13822864 28.94189453 34.84570312 C30.69523653 31.86561317 30.69523653 31.86561317 29.78173828 29.04882812 C28.02233015 24.87329686 25.79824596 21.16748839 23.37939453 17.34570312 C22.92822266 16.60964844 22.47705078 15.87359375 22.01220703 15.11523438 C21.57650391 14.42042969 21.14080078 13.725625 20.69189453 13.00976562 C20.09828125 12.06157959 20.09828125 12.06157959 19.49267578 11.09423828 C19.12529297 10.64097168 18.75791016 10.18770508 18.37939453 9.72070312 C17.71939453 9.72070312 17.05939453 9.72070312 16.37939453 9.72070312 Z " fill="#2C2D2F" transform="translate(133.62060546875,96.279296875)"/>
</svg>
